<?xml version="1.0" encoding="UTF-8"?>
<!DOCTYPE svg PUBLIC "-//W3C//DTD SVG 1.1//EN" "http://www.w3.org/Graphics/SVG/1.1/DTD/svg11.dtd">
<svg xmlns="http://www.w3.org/2000/svg" version="1.1" width="100px" height="100px" style="shape-rendering:geometricPrecision; text-rendering:geometricPrecision; image-rendering:optimizeQuality; fill-rule:evenodd; clip-rule:evenodd" xmlns:xlink="http://www.w3.org/1999/xlink">
<g><path style="opacity:0.953" fill="#000000" d="M 11.5,1.5 C 15.7924,1.03488 19.7924,1.86822 23.5,4C 32.0142,12.6811 40.6809,21.1811 49.5,29.5C 58.3191,21.1811 66.9858,12.6811 75.5,4C 83.5694,-0.301364 90.4028,1.19864 96,8.5C 98.1848,13.9868 97.8515,19.3201 95,24.5C 86.5,33 78,41.5 69.5,50C 79.4007,59.2311 88.5674,69.0644 97,79.5C 98.9641,90.3757 94.4641,96.709 83.5,98.5C 80.676,98.1698 78.0094,97.3365 75.5,96C 66.9858,87.3189 58.3191,78.8189 49.5,70.5C 40.3178,79.5161 30.9845,88.3495 21.5,97C 9.9583,100.061 2.9583,95.7272 0.5,84C 1.20664,81.4803 2.03997,78.9803 3,76.5C 11.8333,67.6667 20.6667,58.8333 29.5,50C 19.9695,40.8037 10.8029,31.3037 2,21.5C -0.478736,12.1249 2.68793,5.45826 11.5,1.5 Z"/></g>
</svg>
