<?xml version="1.0" encoding="UTF-8"?>
<!DOCTYPE svg PUBLIC "-//W3C//DTD SVG 1.1//EN" "http://www.w3.org/Graphics/SVG/1.1/DTD/svg11.dtd">
<svg xmlns="http://www.w3.org/2000/svg" version="1.1" width="3464px" height="2309px" style="shape-rendering:geometricPrecision; text-rendering:geometricPrecision; image-rendering:optimizeQuality; fill-rule:evenodd; clip-rule:evenodd" xmlns:xlink="http://www.w3.org/1999/xlink">
<g><path style="opacity:0.938" fill="#fefffe" d="M 1677.5,81.5 C 1680.57,81.5467 1683.57,82.0467 1686.5,83C 1687.17,85 1687.83,87 1688.5,89C 1690.5,89.3333 1692.5,89.6667 1694.5,90C 1695.11,92.1474 1695.78,94.314 1696.5,96.5C 1698.44,97.1892 1700.44,97.6892 1702.5,98C 1703.11,100.147 1703.78,102.314 1704.5,104.5C 1706.71,105.106 1708.88,105.773 1711,106.5C 1711.5,108.473 1711.66,110.473 1711.5,112.5C 1713.85,112.838 1716.19,113.338 1718.5,114C 1719.42,116.041 1719.76,118.208 1719.5,120.5C 1721.85,120.838 1724.19,121.338 1726.5,122C 1727.42,124.041 1727.76,126.208 1727.5,128.5C 1733.82,127.687 1736.49,130.354 1735.5,136.5C 1738.17,136.833 1740.83,137.167 1743.5,137.5C 1743.5,140.167 1743.5,142.833 1743.5,145.5C 1750.5,143.833 1753.17,146.5 1751.5,153.5C 1753.86,153.337 1756.19,153.503 1758.5,154C 1759.17,156.333 1759.83,158.667 1760.5,161C 1762.81,161.497 1765.14,161.663 1767.5,161.5C 1765.83,168.5 1768.5,171.167 1775.5,169.5C 1773.83,176.5 1776.5,179.167 1783.5,177.5C 1782.18,184.17 1784.84,186.836 1791.5,185.5C 1790.18,192.17 1792.84,194.836 1799.5,193.5C 1798.18,200.17 1800.84,202.836 1807.5,201.5C 1807.19,203.924 1807.53,206.257 1808.5,208.5C 1810.71,209.106 1812.88,209.773 1815,210.5C 1815.5,212.473 1815.66,214.473 1815.5,216.5C 1817.85,216.838 1820.19,217.338 1822.5,218C 1823.42,220.041 1823.76,222.208 1823.5,224.5C 1825.85,224.838 1828.19,225.338 1830.5,226C 1831.42,228.041 1831.76,230.208 1831.5,232.5C 1833.85,232.838 1836.19,233.338 1838.5,234C 1839.42,236.041 1839.76,238.208 1839.5,240.5C 1841.85,240.838 1844.19,241.338 1846.5,242C 1847.42,244.041 1847.76,246.208 1847.5,248.5C 1849.85,248.838 1852.19,249.338 1854.5,250C 1855.42,252.041 1855.76,254.208 1855.5,256.5C 1857.85,256.838 1860.19,257.338 1862.5,258C 1863.42,260.041 1863.76,262.208 1863.5,264.5C 1865.85,264.838 1868.19,265.338 1870.5,266C 1871.42,268.041 1871.76,270.208 1871.5,272.5C 1877.82,271.687 1880.49,274.354 1879.5,280.5C 1885.82,279.687 1888.49,282.354 1887.5,288.5C 1893.43,287.999 1896.1,290.666 1895.5,296.5C 1901.43,295.999 1904.1,298.666 1903.5,304.5C 1905.86,304.674 1908.19,305.007 1910.5,305.5C 1910.67,307.861 1911.01,310.194 1911.5,312.5C 1913.86,312.674 1916.19,313.007 1918.5,313.5C 1918.5,315.833 1918.5,318.167 1918.5,320.5C 1921.21,320.575 1923.87,320.908 1926.5,321.5C 1926.5,329.167 1926.5,336.833 1926.5,344.5C 1923.83,344.5 1921.17,344.5 1918.5,344.5C 1918.5,347.167 1918.5,349.833 1918.5,352.5C 1915.83,352.5 1913.17,352.5 1910.5,352.5C 1910.5,355.167 1910.5,357.833 1910.5,360.5C 1908.17,360.5 1905.83,360.5 1903.5,360.5C 1902.91,363.127 1902.58,365.794 1902.5,368.5C 1900.17,368.5 1897.83,368.5 1895.5,368.5C 1895.17,371.167 1894.83,373.833 1894.5,376.5C 1892.17,376.5 1889.83,376.5 1887.5,376.5C 1887.42,379.206 1887.09,381.873 1886.5,384.5C 1884.17,384.5 1881.83,384.5 1879.5,384.5C 1879.42,387.206 1879.09,389.873 1878.5,392.5C 1876.17,392.5 1873.83,392.5 1871.5,392.5C 1871.42,395.206 1871.09,397.873 1870.5,400.5C 1868.17,400.5 1865.83,400.5 1863.5,400.5C 1864.84,407.158 1862.17,409.825 1855.5,408.5C 1856.84,415.158 1854.17,417.825 1847.5,416.5C 1848.84,423.158 1846.17,425.825 1839.5,424.5C 1840.84,431.158 1838.17,433.825 1831.5,432.5C 1833.17,439.5 1830.5,442.167 1823.5,440.5C 1825.17,447.5 1822.5,450.167 1815.5,448.5C 1817.17,455.5 1814.5,458.167 1807.5,456.5C 1809.17,463.5 1806.5,466.167 1799.5,464.5C 1801.17,471.5 1798.5,474.167 1791.5,472.5C 1793.17,479.5 1790.5,482.167 1783.5,480.5C 1785.17,487.5 1782.5,490.167 1775.5,488.5C 1777.17,495.5 1774.5,498.167 1767.5,496.5C 1769.17,503.5 1766.5,506.167 1759.5,504.5C 1761.17,511.5 1758.5,514.167 1751.5,512.5C 1752.82,519.17 1750.16,521.836 1743.5,520.5C 1744.82,527.17 1742.16,529.836 1735.5,528.5C 1736.82,535.17 1734.16,537.836 1727.5,536.5C 1728.82,543.17 1726.16,545.836 1719.5,544.5C 1720.82,551.17 1718.16,553.836 1711.5,552.5C 1711.5,554.833 1711.5,557.167 1711.5,559.5C 1708.87,560.092 1706.21,560.425 1703.5,560.5C 1703.5,562.833 1703.5,565.167 1703.5,567.5C 1700.87,568.092 1698.21,568.425 1695.5,568.5C 1695.5,570.833 1695.5,573.167 1695.5,575.5C 1692.83,575.833 1690.17,576.167 1687.5,576.5C 1687.5,578.833 1687.5,581.167 1687.5,583.5C 1684.79,583.575 1682.13,583.908 1679.5,584.5C 1679.5,586.833 1679.5,589.167 1679.5,591.5C 1676.83,591.5 1674.17,591.5 1671.5,591.5C 1671.5,594.167 1671.5,596.833 1671.5,599.5C 1668.83,599.5 1666.17,599.5 1663.5,599.5C 1663.5,602.167 1663.5,604.833 1663.5,607.5C 1660.83,607.5 1658.17,607.5 1655.5,607.5C 1655.5,610.167 1655.5,612.833 1655.5,615.5C 1652.83,615.5 1650.17,615.5 1647.5,615.5C 1647.5,618.167 1647.5,620.833 1647.5,623.5C 1644.83,623.5 1642.17,623.5 1639.5,623.5C 1639.5,626.167 1639.5,628.833 1639.5,631.5C 1636.83,631.5 1634.17,631.5 1631.5,631.5C 1631.5,634.167 1631.5,636.833 1631.5,639.5C 1628.83,639.5 1626.17,639.5 1623.5,639.5C 1623.5,642.167 1623.5,644.833 1623.5,647.5C 1620.83,647.5 1618.17,647.5 1615.5,647.5C 1615.5,650.167 1615.5,652.833 1615.5,655.5C 1613.17,655.5 1610.83,655.5 1608.5,655.5C 1607.91,658.127 1607.58,660.794 1607.5,663.5C 1605.17,663.5 1602.83,663.5 1600.5,663.5C 1600.17,666.167 1599.83,668.833 1599.5,671.5C 1597.17,671.5 1594.83,671.5 1592.5,671.5C 1592.42,674.206 1592.09,676.873 1591.5,679.5C 1589.17,679.5 1586.83,679.5 1584.5,679.5C 1584.42,682.206 1584.09,684.873 1583.5,687.5C 1581.17,687.5 1578.83,687.5 1576.5,687.5C 1576.42,690.206 1576.09,692.873 1575.5,695.5C 1573.17,695.5 1570.83,695.5 1568.5,695.5C 1569.84,702.158 1567.17,704.825 1560.5,703.5C 1561.84,710.158 1559.17,712.825 1552.5,711.5C 1553.84,718.158 1551.17,720.825 1544.5,719.5C 1545.84,726.158 1543.17,728.825 1536.5,727.5C 1538.17,734.5 1535.5,737.167 1528.5,735.5C 1530.17,742.5 1527.5,745.167 1520.5,743.5C 1522.17,750.5 1519.5,753.167 1512.5,751.5C 1514.17,758.5 1511.5,761.167 1504.5,759.5C 1506.17,766.5 1503.5,769.167 1496.5,767.5C 1498.17,774.5 1495.5,777.167 1488.5,775.5C 1490.17,782.5 1487.5,785.167 1480.5,783.5C 1482.17,790.5 1479.5,793.167 1472.5,791.5C 1474.17,798.5 1471.5,801.167 1464.5,799.5C 1466.17,806.5 1463.5,809.167 1456.5,807.5C 1457.82,814.17 1455.16,816.836 1448.5,815.5C 1449.82,822.17 1447.16,824.836 1440.5,823.5C 1441.82,830.17 1439.16,832.836 1432.5,831.5C 1433.82,838.17 1431.16,840.836 1424.5,839.5C 1425.82,846.17 1423.16,848.836 1416.5,847.5C 1417.82,854.17 1415.16,856.836 1408.5,855.5C 1408.5,857.833 1408.5,860.167 1408.5,862.5C 1405.87,863.092 1403.21,863.425 1400.5,863.5C 1400.5,865.833 1400.5,868.167 1400.5,870.5C 1397.83,870.833 1395.17,871.167 1392.5,871.5C 1392.5,873.833 1392.5,876.167 1392.5,878.5C 1389.79,878.575 1387.13,878.908 1384.5,879.5C 1384.5,881.833 1384.5,884.167 1384.5,886.5C 1381.83,886.5 1379.17,886.5 1376.5,886.5C 1376.5,889.167 1376.5,891.833 1376.5,894.5C 1373.83,894.5 1371.17,894.5 1368.5,894.5C 1368.5,897.167 1368.5,899.833 1368.5,902.5C 1365.83,902.5 1363.17,902.5 1360.5,902.5C 1360.5,905.167 1360.5,907.833 1360.5,910.5C 1357.83,910.5 1355.17,910.5 1352.5,910.5C 1352.5,913.167 1352.5,915.833 1352.5,918.5C 1349.83,918.5 1347.17,918.5 1344.5,918.5C 1344.5,921.167 1344.5,923.833 1344.5,926.5C 1341.83,926.5 1339.17,926.5 1336.5,926.5C 1336.5,929.167 1336.5,931.833 1336.5,934.5C 1333.83,934.5 1331.17,934.5 1328.5,934.5C 1328.5,937.167 1328.5,939.833 1328.5,942.5C 1325.83,942.5 1323.17,942.5 1320.5,942.5C 1320.5,945.167 1320.5,947.833 1320.5,950.5C 1318.17,950.5 1315.83,950.5 1313.5,950.5C 1312.91,953.127 1312.58,955.794 1312.5,958.5C 1310.17,958.5 1307.83,958.5 1305.5,958.5C 1305.17,961.167 1304.83,963.833 1304.5,966.5C 1302.17,966.5 1299.83,966.5 1297.5,966.5C 1297.17,969.167 1296.83,971.833 1296.5,974.5C 1294.17,974.5 1291.83,974.5 1289.5,974.5C 1289.42,977.206 1289.09,979.873 1288.5,982.5C 1286.17,982.5 1283.83,982.5 1281.5,982.5C 1281.42,985.206 1281.09,987.873 1280.5,990.5C 1278.17,990.5 1275.83,990.5 1273.5,990.5C 1274.84,997.158 1272.17,999.825 1265.5,998.5C 1266.84,1005.16 1264.17,1007.82 1257.5,1006.5C 1258.84,1013.16 1256.17,1015.82 1249.5,1014.5C 1250.84,1021.16 1248.17,1023.82 1241.5,1022.5C 1243.17,1029.5 1240.5,1032.17 1233.5,1030.5C 1235.17,1037.5 1232.5,1040.17 1225.5,1038.5C 1227.17,1045.5 1224.5,1048.17 1217.5,1046.5C 1219.17,1053.5 1216.5,1056.17 1209.5,1054.5C 1211.17,1061.5 1208.5,1064.17 1201.5,1062.5C 1203.17,1069.5 1200.5,1072.17 1193.5,1070.5C 1195.17,1077.5 1192.5,1080.17 1185.5,1078.5C 1187.17,1085.5 1184.5,1088.17 1177.5,1086.5C 1179.17,1093.5 1176.5,1096.17 1169.5,1094.5C 1171.17,1101.5 1168.5,1104.17 1161.5,1102.5C 1162.04,1105.97 1161.04,1108.81 1158.5,1111C 1161.04,1112.81 1162.04,1115.31 1161.5,1118.5C 1167.69,1117.52 1170.36,1120.19 1169.5,1126.5C 1175.69,1125.52 1178.36,1128.19 1177.5,1134.5C 1183.69,1133.52 1186.36,1136.19 1185.5,1142.5C 1191.69,1141.52 1194.36,1144.19 1193.5,1150.5C 1199.69,1149.52 1202.36,1152.19 1201.5,1158.5C 1207.65,1157.51 1210.31,1160.18 1209.5,1166.5C 1215.65,1165.51 1218.31,1168.18 1217.5,1174.5C 1223.65,1173.51 1226.31,1176.18 1225.5,1182.5C 1227.53,1182.34 1229.53,1182.5 1231.5,1183C 1232.55,1185.38 1233.22,1187.88 1233.5,1190.5C 1235.53,1190.34 1237.53,1190.5 1239.5,1191C 1240.55,1193.38 1241.22,1195.88 1241.5,1198.5C 1243.53,1198.34 1245.53,1198.5 1247.5,1199C 1248.55,1201.38 1249.22,1203.88 1249.5,1206.5C 1251.53,1206.34 1253.53,1206.5 1255.5,1207C 1256.23,1209.12 1256.89,1211.29 1257.5,1213.5C 1259.69,1214.22 1261.85,1214.89 1264,1215.5C 1264.33,1217.5 1264.67,1219.5 1265,1221.5C 1267.07,1222.26 1269.24,1222.76 1271.5,1223C 1272.26,1225.07 1272.76,1227.24 1273,1229.5C 1275.07,1230.26 1277.24,1230.76 1279.5,1231C 1280.26,1233.07 1280.76,1235.24 1281,1237.5C 1283.07,1238.26 1285.24,1238.76 1287.5,1239C 1288.26,1241.07 1288.76,1243.24 1289,1245.5C 1291.07,1246.26 1293.24,1246.76 1295.5,1247C 1296.26,1249.07 1296.76,1251.24 1297,1253.5C 1299.07,1254.26 1301.24,1254.76 1303.5,1255C 1304.26,1257.07 1304.76,1259.24 1305,1261.5C 1307.07,1262.26 1309.24,1262.76 1311.5,1263C 1312.26,1265.07 1312.76,1267.24 1313,1269.5C 1315.07,1270.26 1317.24,1270.76 1319.5,1271C 1320.26,1273.07 1320.76,1275.24 1321,1277.5C 1323.07,1278.26 1325.24,1278.76 1327.5,1279C 1328.11,1281.15 1328.78,1283.31 1329.5,1285.5C 1331.71,1286.11 1333.88,1286.77 1336,1287.5C 1336.5,1289.47 1336.66,1291.47 1336.5,1293.5C 1338.85,1293.84 1341.19,1294.34 1343.5,1295C 1344.42,1297.04 1344.76,1299.21 1344.5,1301.5C 1346.85,1301.84 1349.19,1302.34 1351.5,1303C 1352.42,1305.04 1352.76,1307.21 1352.5,1309.5C 1358.82,1308.69 1361.49,1311.35 1360.5,1317.5C 1366.82,1316.69 1369.49,1319.35 1368.5,1325.5C 1374.82,1324.69 1377.49,1327.35 1376.5,1333.5C 1382.82,1332.69 1385.49,1335.35 1384.5,1341.5C 1390.81,1340.64 1393.48,1343.31 1392.5,1349.5C 1398.81,1348.64 1401.48,1351.31 1400.5,1357.5C 1406.81,1356.64 1409.48,1359.31 1408.5,1365.5C 1414.81,1364.64 1417.48,1367.31 1416.5,1373.5C 1422.81,1372.64 1425.48,1375.31 1424.5,1381.5C 1430.81,1380.64 1433.48,1383.31 1432.5,1389.5C 1438.5,1388.83 1441.17,1391.5 1440.5,1397.5C 1446.5,1396.83 1449.17,1399.5 1448.5,1405.5C 1454.5,1404.83 1457.17,1407.5 1456.5,1413.5C 1462.69,1412.52 1465.36,1415.19 1464.5,1421.5C 1470.69,1420.52 1473.36,1423.19 1472.5,1429.5C 1478.69,1428.52 1481.36,1431.19 1480.5,1437.5C 1486.69,1436.52 1489.36,1439.19 1488.5,1445.5C 1494.69,1444.52 1497.36,1447.19 1496.5,1453.5C 1502.65,1452.51 1505.31,1455.18 1504.5,1461.5C 1510.65,1460.51 1513.31,1463.18 1512.5,1469.5C 1518.65,1468.51 1521.31,1471.18 1520.5,1477.5C 1522.53,1477.34 1524.53,1477.5 1526.5,1478C 1527.55,1480.38 1528.22,1482.88 1528.5,1485.5C 1530.53,1485.34 1532.53,1485.5 1534.5,1486C 1535.55,1488.38 1536.22,1490.88 1536.5,1493.5C 1538.53,1493.34 1540.53,1493.5 1542.5,1494C 1543.55,1496.38 1544.22,1498.88 1544.5,1501.5C 1546.53,1501.34 1548.53,1501.5 1550.5,1502C 1551.23,1504.12 1551.89,1506.29 1552.5,1508.5C 1554.69,1509.22 1556.85,1509.89 1559,1510.5C 1559.33,1512.5 1559.67,1514.5 1560,1516.5C 1562.07,1517.26 1564.24,1517.76 1566.5,1518C 1567.26,1520.07 1567.76,1522.24 1568,1524.5C 1570.07,1525.26 1572.24,1525.76 1574.5,1526C 1575.26,1528.07 1575.76,1530.24 1576,1532.5C 1578.07,1533.26 1580.24,1533.76 1582.5,1534C 1583.26,1536.07 1583.76,1538.24 1584,1540.5C 1586.07,1541.26 1588.24,1541.76 1590.5,1542C 1591.26,1544.07 1591.76,1546.24 1592,1548.5C 1594.07,1549.26 1596.24,1549.76 1598.5,1550C 1599.26,1552.07 1599.76,1554.24 1600,1556.5C 1602.07,1557.26 1604.24,1557.76 1606.5,1558C 1607.26,1560.07 1607.76,1562.24 1608,1564.5C 1610.07,1565.26 1612.24,1565.76 1614.5,1566C 1615.26,1568.07 1615.76,1570.24 1616,1572.5C 1618.07,1573.26 1620.24,1573.76 1622.5,1574C 1623.11,1576.15 1623.78,1578.31 1624.5,1580.5C 1626.71,1581.11 1628.88,1581.77 1631,1582.5C 1631.5,1584.47 1631.66,1586.47 1631.5,1588.5C 1633.85,1588.84 1636.19,1589.34 1638.5,1590C 1639.42,1592.04 1639.76,1594.21 1639.5,1596.5C 1641.85,1596.84 1644.19,1597.34 1646.5,1598C 1647.42,1600.04 1647.76,1602.21 1647.5,1604.5C 1649.85,1604.84 1652.19,1605.34 1654.5,1606C 1655.42,1608.04 1655.76,1610.21 1655.5,1612.5C 1661.82,1611.69 1664.49,1614.35 1663.5,1620.5C 1669.82,1619.69 1672.49,1622.35 1671.5,1628.5C 1677.82,1627.69 1680.49,1630.35 1679.5,1636.5C 1685.81,1635.64 1688.48,1638.31 1687.5,1644.5C 1693.81,1643.64 1696.48,1646.31 1695.5,1652.5C 1701.81,1651.64 1704.48,1654.31 1703.5,1660.5C 1709.81,1659.64 1712.48,1662.31 1711.5,1668.5C 1717.81,1667.64 1720.48,1670.31 1719.5,1676.5C 1725.5,1675.83 1728.17,1678.5 1727.5,1684.5C 1733.5,1683.83 1736.17,1686.5 1735.5,1692.5C 1741.5,1691.83 1744.17,1694.5 1743.5,1700.5C 1749.69,1699.52 1752.36,1702.19 1751.5,1708.5C 1757.69,1707.52 1760.36,1710.19 1759.5,1716.5C 1765.69,1715.52 1768.36,1718.19 1767.5,1724.5C 1773.69,1723.52 1776.36,1726.19 1775.5,1732.5C 1781.69,1731.52 1784.36,1734.19 1783.5,1740.5C 1789.69,1739.52 1792.36,1742.19 1791.5,1748.5C 1797.65,1747.51 1800.31,1750.18 1799.5,1756.5C 1805.65,1755.51 1808.31,1758.18 1807.5,1764.5C 1813.65,1763.51 1816.31,1766.18 1815.5,1772.5C 1821.65,1771.51 1824.31,1774.18 1823.5,1780.5C 1825.53,1780.34 1827.53,1780.5 1829.5,1781C 1830.55,1783.38 1831.22,1785.88 1831.5,1788.5C 1833.53,1788.34 1835.53,1788.5 1837.5,1789C 1838.55,1791.38 1839.22,1793.88 1839.5,1796.5C 1841.53,1796.34 1843.53,1796.5 1845.5,1797C 1846.23,1799.12 1846.89,1801.29 1847.5,1803.5C 1849.69,1804.22 1851.85,1804.89 1854,1805.5C 1854.33,1807.5 1854.67,1809.5 1855,1811.5C 1857.07,1812.26 1859.24,1812.76 1861.5,1813C 1862.26,1815.07 1862.76,1817.24 1863,1819.5C 1865.07,1820.26 1867.24,1820.76 1869.5,1821C 1870.26,1823.07 1870.76,1825.24 1871,1827.5C 1873.07,1828.26 1875.24,1828.76 1877.5,1829C 1878.26,1831.07 1878.76,1833.24 1879,1835.5C 1881.07,1836.26 1883.24,1836.76 1885.5,1837C 1886.26,1839.07 1886.76,1841.24 1887,1843.5C 1889.07,1844.26 1891.24,1844.76 1893.5,1845C 1894.26,1847.07 1894.76,1849.24 1895,1851.5C 1897.07,1852.26 1899.24,1852.76 1901.5,1853C 1902.26,1855.07 1902.76,1857.24 1903,1859.5C 1905.07,1860.26 1907.24,1860.76 1909.5,1861C 1910.26,1863.07 1910.76,1865.24 1911,1867.5C 1913.07,1868.26 1915.24,1868.76 1917.5,1869C 1918.11,1871.15 1918.78,1873.31 1919.5,1875.5C 1921.71,1876.11 1923.88,1876.77 1926,1877.5C 1926.67,1886.83 1926.67,1896.17 1926,1905.5C 1923.77,1907.11 1921.27,1907.78 1918.5,1907.5C 1919.49,1913.65 1916.82,1916.31 1910.5,1915.5C 1911.49,1921.65 1908.82,1924.31 1902.5,1923.5C 1903.49,1929.65 1900.82,1932.31 1894.5,1931.5C 1895.49,1937.65 1892.82,1940.31 1886.5,1939.5C 1886.66,1941.53 1886.5,1943.53 1886,1945.5C 1883.62,1946.55 1881.12,1947.22 1878.5,1947.5C 1879.49,1953.65 1876.82,1956.31 1870.5,1955.5C 1870.66,1957.53 1870.5,1959.53 1870,1961.5C 1867.62,1962.55 1865.12,1963.22 1862.5,1963.5C 1862.66,1965.53 1862.5,1967.53 1862,1969.5C 1859.62,1970.55 1857.12,1971.22 1854.5,1971.5C 1854.66,1973.53 1854.5,1975.53 1854,1977.5C 1851.88,1978.23 1849.71,1978.89 1847.5,1979.5C 1846.69,1981.42 1846.19,1983.42 1846,1985.5C 1843.88,1986.23 1841.71,1986.89 1839.5,1987.5C 1838.69,1989.42 1838.19,1991.42 1838,1993.5C 1835.85,1994.11 1833.69,1994.78 1831.5,1995.5C 1830.81,1997.44 1830.31,1999.44 1830,2001.5C 1827.85,2002.11 1825.69,2002.78 1823.5,2003.5C 1822.81,2005.44 1822.31,2007.44 1822,2009.5C 1819.85,2010.11 1817.69,2010.78 1815.5,2011.5C 1814.89,2013.71 1814.23,2015.88 1813.5,2018C 1811.53,2018.5 1809.53,2018.66 1807.5,2018.5C 1807.16,2020.85 1806.66,2023.19 1806,2025.5C 1803.96,2026.42 1801.79,2026.76 1799.5,2026.5C 1799.16,2028.85 1798.66,2031.19 1798,2033.5C 1795.96,2034.42 1793.79,2034.76 1791.5,2034.5C 1792.31,2040.82 1789.65,2043.49 1783.5,2042.5C 1784.31,2048.82 1781.65,2051.49 1775.5,2050.5C 1776.31,2056.82 1773.65,2059.49 1767.5,2058.5C 1768.31,2064.82 1765.65,2067.49 1759.5,2066.5C 1760.31,2072.82 1757.65,2075.49 1751.5,2074.5C 1752.31,2080.82 1749.65,2083.49 1743.5,2082.5C 1744.36,2088.81 1741.69,2091.48 1735.5,2090.5C 1736.36,2096.81 1733.69,2099.48 1727.5,2098.5C 1728.5,2104.83 1725.83,2107.5 1719.5,2106.5C 1720.5,2112.83 1717.83,2115.5 1711.5,2114.5C 1712.5,2120.83 1709.83,2123.5 1703.5,2122.5C 1704.5,2128.83 1701.83,2131.5 1695.5,2130.5C 1695.84,2133.16 1695.17,2135.49 1693.5,2137.5C 1686.53,2138.8 1679.53,2138.8 1672.5,2137.5C 1671.63,2135.25 1671.29,2132.92 1671.5,2130.5C 1669.17,2130.5 1666.83,2130.5 1664.5,2130.5C 1663.91,2127.87 1663.58,2125.21 1663.5,2122.5C 1661.17,2122.5 1658.83,2122.5 1656.5,2122.5C 1656.17,2119.83 1655.83,2117.17 1655.5,2114.5C 1653.17,2114.5 1650.83,2114.5 1648.5,2114.5C 1648.17,2111.83 1647.83,2109.17 1647.5,2106.5C 1645.17,2106.5 1642.83,2106.5 1640.5,2106.5C 1640.5,2103.83 1640.5,2101.17 1640.5,2098.5C 1637.83,2098.5 1635.17,2098.5 1632.5,2098.5C 1632.5,2095.83 1632.5,2093.17 1632.5,2090.5C 1629.83,2090.5 1627.17,2090.5 1624.5,2090.5C 1624.5,2087.83 1624.5,2085.17 1624.5,2082.5C 1621.83,2082.5 1619.17,2082.5 1616.5,2082.5C 1616.5,2080.17 1616.5,2077.83 1616.5,2075.5C 1613.83,2075.17 1611.17,2074.83 1608.5,2074.5C 1608.5,2072.17 1608.5,2069.83 1608.5,2067.5C 1605.83,2067.17 1603.17,2066.83 1600.5,2066.5C 1600.5,2064.17 1600.5,2061.83 1600.5,2059.5C 1597.79,2059.42 1595.13,2059.09 1592.5,2058.5C 1592.5,2056.17 1592.5,2053.83 1592.5,2051.5C 1585.84,2052.84 1583.18,2050.17 1584.5,2043.5C 1577.84,2044.84 1575.18,2042.17 1576.5,2035.5C 1569.5,2037.17 1566.83,2034.5 1568.5,2027.5C 1561.5,2029.17 1558.83,2026.5 1560.5,2019.5C 1553.5,2021.17 1550.83,2018.5 1552.5,2011.5C 1545.5,2013.17 1542.83,2010.5 1544.5,2003.5C 1537.5,2005.17 1534.83,2002.5 1536.5,1995.5C 1529.5,1997.17 1526.83,1994.5 1528.5,1987.5C 1521.5,1989.17 1518.83,1986.5 1520.5,1979.5C 1513.5,1981.17 1510.83,1978.5 1512.5,1971.5C 1505.5,1973.17 1502.83,1970.5 1504.5,1963.5C 1497.5,1965.17 1494.83,1962.5 1496.5,1955.5C 1489.5,1957.17 1486.83,1954.5 1488.5,1947.5C 1481.5,1949.17 1478.83,1946.5 1480.5,1939.5C 1473.5,1941.17 1470.83,1938.5 1472.5,1931.5C 1465.5,1933.17 1462.83,1930.5 1464.5,1923.5C 1457.5,1925.17 1454.83,1922.5 1456.5,1915.5C 1449.5,1917.17 1446.83,1914.5 1448.5,1907.5C 1441.5,1909.17 1438.83,1906.5 1440.5,1899.5C 1433.5,1901.17 1430.83,1898.5 1432.5,1891.5C 1425.5,1893.17 1422.83,1890.5 1424.5,1883.5C 1417.5,1885.17 1414.83,1882.5 1416.5,1875.5C 1409.5,1877.17 1406.83,1874.5 1408.5,1867.5C 1401.5,1869.17 1398.83,1866.5 1400.5,1859.5C 1393.5,1861.17 1390.83,1858.5 1392.5,1851.5C 1385.83,1852.82 1383.16,1850.16 1384.5,1843.5C 1377.83,1844.82 1375.16,1842.16 1376.5,1835.5C 1374.17,1835.5 1371.83,1835.5 1369.5,1835.5C 1368.91,1832.87 1368.58,1830.21 1368.5,1827.5C 1366.17,1827.5 1363.83,1827.5 1361.5,1827.5C 1361.17,1824.83 1360.83,1822.17 1360.5,1819.5C 1358.17,1819.5 1355.83,1819.5 1353.5,1819.5C 1353.17,1816.83 1352.83,1814.17 1352.5,1811.5C 1350.17,1811.5 1347.83,1811.5 1345.5,1811.5C 1345.5,1808.83 1345.5,1806.17 1345.5,1803.5C 1342.83,1803.5 1340.17,1803.5 1337.5,1803.5C 1337.5,1800.83 1337.5,1798.17 1337.5,1795.5C 1334.83,1795.5 1332.17,1795.5 1329.5,1795.5C 1329.5,1792.83 1329.5,1790.17 1329.5,1787.5C 1326.83,1787.5 1324.17,1787.5 1321.5,1787.5C 1321.5,1785.17 1321.5,1782.83 1321.5,1780.5C 1318.83,1780.17 1316.17,1779.83 1313.5,1779.5C 1313.5,1777.17 1313.5,1774.83 1313.5,1772.5C 1310.83,1772.17 1308.17,1771.83 1305.5,1771.5C 1305.5,1769.17 1305.5,1766.83 1305.5,1764.5C 1302.79,1764.42 1300.13,1764.09 1297.5,1763.5C 1297.5,1761.17 1297.5,1758.83 1297.5,1756.5C 1290.84,1757.84 1288.18,1755.17 1289.5,1748.5C 1282.84,1749.84 1280.18,1747.17 1281.5,1740.5C 1274.5,1742.17 1271.83,1739.5 1273.5,1732.5C 1266.5,1734.17 1263.83,1731.5 1265.5,1724.5C 1258.5,1726.17 1255.83,1723.5 1257.5,1716.5C 1250.5,1718.17 1247.83,1715.5 1249.5,1708.5C 1242.5,1710.17 1239.83,1707.5 1241.5,1700.5C 1234.5,1702.17 1231.83,1699.5 1233.5,1692.5C 1226.5,1694.17 1223.83,1691.5 1225.5,1684.5C 1218.5,1686.17 1215.83,1683.5 1217.5,1676.5C 1210.5,1678.17 1207.83,1675.5 1209.5,1668.5C 1202.5,1670.17 1199.83,1667.5 1201.5,1660.5C 1194.5,1662.17 1191.83,1659.5 1193.5,1652.5C 1186.5,1654.17 1183.83,1651.5 1185.5,1644.5C 1178.5,1646.17 1175.83,1643.5 1177.5,1636.5C 1170.5,1638.17 1167.83,1635.5 1169.5,1628.5C 1162.5,1630.17 1159.83,1627.5 1161.5,1620.5C 1154.5,1622.17 1151.83,1619.5 1153.5,1612.5C 1146.5,1614.17 1143.83,1611.5 1145.5,1604.5C 1138.5,1606.17 1135.83,1603.5 1137.5,1596.5C 1130.5,1598.17 1127.83,1595.5 1129.5,1588.5C 1122.5,1590.17 1119.83,1587.5 1121.5,1580.5C 1114.5,1582.17 1111.83,1579.5 1113.5,1572.5C 1106.5,1574.17 1103.83,1571.5 1105.5,1564.5C 1098.5,1566.17 1095.83,1563.5 1097.5,1556.5C 1090.83,1557.82 1088.16,1555.16 1089.5,1548.5C 1082.83,1549.82 1080.16,1547.16 1081.5,1540.5C 1079.17,1540.5 1076.83,1540.5 1074.5,1540.5C 1073.91,1537.87 1073.58,1535.21 1073.5,1532.5C 1071.17,1532.5 1068.83,1532.5 1066.5,1532.5C 1065.91,1529.87 1065.58,1527.21 1065.5,1524.5C 1063.17,1524.5 1060.83,1524.5 1058.5,1524.5C 1058.17,1521.83 1057.83,1519.17 1057.5,1516.5C 1055.17,1516.5 1052.83,1516.5 1050.5,1516.5C 1050.5,1513.83 1050.5,1511.17 1050.5,1508.5C 1047.83,1508.5 1045.17,1508.5 1042.5,1508.5C 1042.5,1505.83 1042.5,1503.17 1042.5,1500.5C 1039.83,1500.5 1037.17,1500.5 1034.5,1500.5C 1034.5,1497.83 1034.5,1495.17 1034.5,1492.5C 1031.83,1492.5 1029.17,1492.5 1026.5,1492.5C 1026.5,1490.17 1026.5,1487.83 1026.5,1485.5C 1023.83,1485.17 1021.17,1484.83 1018.5,1484.5C 1018.5,1482.17 1018.5,1479.83 1018.5,1477.5C 1015.83,1477.17 1013.17,1476.83 1010.5,1476.5C 1010.5,1474.17 1010.5,1471.83 1010.5,1469.5C 1007.79,1469.42 1005.13,1469.09 1002.5,1468.5C 1002.5,1466.17 1002.5,1463.83 1002.5,1461.5C 995.842,1462.84 993.175,1460.17 994.5,1453.5C 987.842,1454.84 985.175,1452.17 986.5,1445.5C 979.5,1447.17 976.833,1444.5 978.5,1437.5C 971.5,1439.17 968.833,1436.5 970.5,1429.5C 963.5,1431.17 960.833,1428.5 962.5,1421.5C 955.5,1423.17 952.833,1420.5 954.5,1413.5C 947.5,1415.17 944.833,1412.5 946.5,1405.5C 939.5,1407.17 936.833,1404.5 938.5,1397.5C 931.5,1399.17 928.833,1396.5 930.5,1389.5C 923.5,1391.17 920.833,1388.5 922.5,1381.5C 915.5,1383.17 912.833,1380.5 914.5,1373.5C 907.5,1375.17 904.833,1372.5 906.5,1365.5C 899.5,1367.17 896.833,1364.5 898.5,1357.5C 891.5,1359.17 888.833,1356.5 890.5,1349.5C 883.5,1351.17 880.833,1348.5 882.5,1341.5C 875.5,1343.17 872.833,1340.5 874.5,1333.5C 867.5,1335.17 864.833,1332.5 866.5,1325.5C 859.5,1327.17 856.833,1324.5 858.5,1317.5C 851.5,1319.17 848.833,1316.5 850.5,1309.5C 843.5,1311.17 840.833,1308.5 842.5,1301.5C 835.5,1303.17 832.833,1300.5 834.5,1293.5C 827.5,1295.17 824.833,1292.5 826.5,1285.5C 819.5,1287.17 816.833,1284.5 818.5,1277.5C 811.5,1279.17 808.833,1276.5 810.5,1269.5C 803.5,1271.17 800.833,1268.5 802.5,1261.5C 795.83,1262.82 793.164,1260.16 794.5,1253.5C 787.83,1254.82 785.164,1252.16 786.5,1245.5C 784.167,1245.5 781.833,1245.5 779.5,1245.5C 778.908,1242.87 778.575,1240.21 778.5,1237.5C 776.167,1237.5 773.833,1237.5 771.5,1237.5C 770.908,1234.87 770.575,1232.21 770.5,1229.5C 768.167,1229.5 765.833,1229.5 763.5,1229.5C 763.167,1226.83 762.833,1224.17 762.5,1221.5C 760.167,1221.5 757.833,1221.5 755.5,1221.5C 755.5,1218.83 755.5,1216.17 755.5,1213.5C 752.833,1213.5 750.167,1213.5 747.5,1213.5C 747.5,1210.83 747.5,1208.17 747.5,1205.5C 744.833,1205.5 742.167,1205.5 739.5,1205.5C 739.5,1202.83 739.5,1200.17 739.5,1197.5C 736.833,1197.5 734.167,1197.5 731.5,1197.5C 731.5,1194.83 731.5,1192.17 731.5,1189.5C 728.833,1189.5 726.167,1189.5 723.5,1189.5C 723.5,1187.17 723.5,1184.83 723.5,1182.5C 720.833,1182.17 718.167,1181.83 715.5,1181.5C 715.5,1179.17 715.5,1176.83 715.5,1174.5C 712.794,1174.42 710.127,1174.09 707.5,1173.5C 707.5,1171.17 707.5,1168.83 707.5,1166.5C 700.842,1167.84 698.175,1165.17 699.5,1158.5C 692.842,1159.84 690.175,1157.17 691.5,1150.5C 684.5,1152.17 681.833,1149.5 683.5,1142.5C 676.5,1144.17 673.833,1141.5 675.5,1134.5C 668.5,1136.17 665.833,1133.5 667.5,1126.5C 660.5,1128.17 657.833,1125.5 659.5,1118.5C 653.19,1119.31 650.523,1116.65 651.5,1110.5C 650.506,1104.16 653.173,1101.49 659.5,1102.5C 657.833,1095.5 660.5,1092.83 667.5,1094.5C 665.833,1087.5 668.5,1084.83 675.5,1086.5C 673.833,1079.5 676.5,1076.83 683.5,1078.5C 681.833,1071.5 684.5,1068.83 691.5,1070.5C 689.833,1063.5 692.5,1060.83 699.5,1062.5C 697.833,1055.5 700.5,1052.83 707.5,1054.5C 705.833,1047.5 708.5,1044.83 715.5,1046.5C 713.833,1039.5 716.5,1036.83 723.5,1038.5C 721.833,1031.5 724.5,1028.83 731.5,1030.5C 729.833,1023.5 732.5,1020.83 739.5,1022.5C 737.833,1015.5 740.5,1012.83 747.5,1014.5C 745.833,1007.5 748.5,1004.83 755.5,1006.5C 754.175,999.83 756.842,997.164 763.5,998.5C 762.297,992.632 764.631,989.799 770.5,990C 771.113,987.853 771.779,985.686 772.5,983.5C 774.709,982.894 776.876,982.227 779,981.5C 779.192,979.423 779.692,977.423 780.5,975.5C 786.03,975.568 788.363,972.902 787.5,967.5C 789.806,967.007 792.139,966.674 794.5,966.5C 794.993,964.194 795.326,961.861 795.5,959.5C 797.806,959.007 800.139,958.674 802.5,958.5C 802.674,956.139 803.007,953.806 803.5,951.5C 805.861,951.326 808.194,950.993 810.5,950.5C 809.637,945.098 811.97,942.432 817.5,942.5C 818.292,940.535 818.959,938.535 819.5,936.5C 821.423,935.692 823.423,935.192 825.5,935C 826.227,932.876 826.894,930.709 827.5,928.5C 829.743,927.526 832.076,927.192 834.5,927.5C 833.164,920.842 835.83,918.175 842.5,919.5C 841.164,912.842 843.83,910.175 850.5,911.5C 848.833,904.5 851.5,901.833 858.5,903.5C 856.833,896.5 859.5,893.833 866.5,895.5C 864.833,888.5 867.5,885.833 874.5,887.5C 872.833,880.5 875.5,877.833 882.5,879.5C 880.833,872.5 883.5,869.833 890.5,871.5C 888.833,864.5 891.5,861.833 898.5,863.5C 896.833,856.5 899.5,853.833 906.5,855.5C 904.833,848.5 907.5,845.833 914.5,847.5C 912.833,840.5 915.5,837.833 922.5,839.5C 920.833,832.5 923.5,829.833 930.5,831.5C 928.833,824.5 931.5,821.833 938.5,823.5C 936.833,816.5 939.5,813.833 946.5,815.5C 944.833,808.5 947.5,805.833 954.5,807.5C 952.833,800.5 955.5,797.833 962.5,799.5C 960.833,792.5 963.5,789.833 970.5,791.5C 968.833,784.5 971.5,781.833 978.5,783.5C 976.833,776.5 979.5,773.833 986.5,775.5C 984.833,768.5 987.5,765.833 994.5,767.5C 992.833,760.5 995.5,757.833 1002.5,759.5C 1000.83,752.5 1003.5,749.833 1010.5,751.5C 1008.83,744.5 1011.5,741.833 1018.5,743.5C 1016.83,736.5 1019.5,733.833 1026.5,735.5C 1024.83,728.5 1027.5,725.833 1034.5,727.5C 1032.83,720.5 1035.5,717.833 1042.5,719.5C 1040.83,712.5 1043.5,709.833 1050.5,711.5C 1049.18,704.83 1051.84,702.164 1058.5,703.5C 1057.3,697.632 1059.63,694.799 1065.5,695C 1066.11,692.853 1066.78,690.686 1067.5,688.5C 1069.71,687.894 1071.88,687.227 1074,686.5C 1074.19,684.423 1074.69,682.423 1075.5,680.5C 1081.03,680.568 1083.36,677.902 1082.5,672.5C 1084.81,672.007 1087.14,671.674 1089.5,671.5C 1089.99,669.194 1090.33,666.861 1090.5,664.5C 1092.81,664.007 1095.14,663.674 1097.5,663.5C 1097.67,661.139 1098.01,658.806 1098.5,656.5C 1100.86,656.326 1103.19,655.993 1105.5,655.5C 1104.64,650.098 1106.97,647.432 1112.5,647.5C 1113.29,645.535 1113.96,643.535 1114.5,641.5C 1116.42,640.692 1118.42,640.192 1120.5,640C 1121.23,637.876 1121.89,635.709 1122.5,633.5C 1124.74,632.526 1127.08,632.192 1129.5,632.5C 1128.16,625.842 1130.83,623.175 1137.5,624.5C 1136.16,617.842 1138.83,615.175 1145.5,616.5C 1143.83,609.5 1146.5,606.833 1153.5,608.5C 1151.83,601.5 1154.5,598.833 1161.5,600.5C 1159.83,593.5 1162.5,590.833 1169.5,592.5C 1167.83,585.5 1170.5,582.833 1177.5,584.5C 1175.83,577.5 1178.5,574.833 1185.5,576.5C 1183.83,569.5 1186.5,566.833 1193.5,568.5C 1191.83,561.5 1194.5,558.833 1201.5,560.5C 1199.83,553.5 1202.5,550.833 1209.5,552.5C 1207.83,545.5 1210.5,542.833 1217.5,544.5C 1215.83,537.5 1218.5,534.833 1225.5,536.5C 1223.83,529.5 1226.5,526.833 1233.5,528.5C 1231.83,521.5 1234.5,518.833 1241.5,520.5C 1239.83,513.5 1242.5,510.833 1249.5,512.5C 1247.83,505.5 1250.5,502.833 1257.5,504.5C 1255.83,497.5 1258.5,494.833 1265.5,496.5C 1263.83,489.5 1266.5,486.833 1273.5,488.5C 1271.83,481.5 1274.5,478.833 1281.5,480.5C 1279.83,473.5 1282.5,470.833 1289.5,472.5C 1287.83,465.5 1290.5,462.833 1297.5,464.5C 1295.83,457.5 1298.5,454.833 1305.5,456.5C 1303.83,449.5 1306.5,446.833 1313.5,448.5C 1311.83,441.5 1314.5,438.833 1321.5,440.5C 1319.83,433.5 1322.5,430.833 1329.5,432.5C 1327.83,425.5 1330.5,422.833 1337.5,424.5C 1335.83,417.5 1338.5,414.833 1345.5,416.5C 1344.18,409.83 1346.84,407.164 1353.5,408.5C 1352.18,401.83 1354.84,399.164 1361.5,400.5C 1360.3,394.632 1362.63,391.799 1368.5,392C 1369.11,389.853 1369.78,387.686 1370.5,385.5C 1372.54,384.959 1374.54,384.292 1376.5,383.5C 1376.43,377.97 1379.1,375.637 1384.5,376.5C 1384.99,374.194 1385.33,371.861 1385.5,369.5C 1387.81,369.007 1390.14,368.674 1392.5,368.5C 1392.67,366.139 1393.01,363.806 1393.5,361.5C 1395.86,361.326 1398.19,360.993 1400.5,360.5C 1399.64,355.098 1401.97,352.432 1407.5,352.5C 1408.29,350.535 1408.96,348.535 1409.5,346.5C 1411.42,345.692 1413.42,345.192 1415.5,345C 1416.23,342.876 1416.89,340.709 1417.5,338.5C 1419.74,337.526 1422.08,337.192 1424.5,337.5C 1423.16,330.842 1425.83,328.175 1432.5,329.5C 1430.83,322.5 1433.5,319.833 1440.5,321.5C 1438.83,314.5 1441.5,311.833 1448.5,313.5C 1446.83,306.5 1449.5,303.833 1456.5,305.5C 1454.83,298.5 1457.5,295.833 1464.5,297.5C 1462.83,290.5 1465.5,287.833 1472.5,289.5C 1470.83,282.5 1473.5,279.833 1480.5,281.5C 1478.83,274.5 1481.5,271.833 1488.5,273.5C 1486.83,266.5 1489.5,263.833 1496.5,265.5C 1494.83,258.5 1497.5,255.833 1504.5,257.5C 1502.83,250.5 1505.5,247.833 1512.5,249.5C 1510.83,242.5 1513.5,239.833 1520.5,241.5C 1518.83,234.5 1521.5,231.833 1528.5,233.5C 1526.83,226.5 1529.5,223.833 1536.5,225.5C 1534.83,218.5 1537.5,215.833 1544.5,217.5C 1542.83,210.5 1545.5,207.833 1552.5,209.5C 1550.83,202.5 1553.5,199.833 1560.5,201.5C 1558.83,194.5 1561.5,191.833 1568.5,193.5C 1566.83,186.5 1569.5,183.833 1576.5,185.5C 1574.83,178.5 1577.5,175.833 1584.5,177.5C 1582.83,170.5 1585.5,167.833 1592.5,169.5C 1590.83,162.5 1593.5,159.833 1600.5,161.5C 1598.83,154.5 1601.5,151.833 1608.5,153.5C 1606.83,146.5 1609.5,143.833 1616.5,145.5C 1614.83,138.5 1617.5,135.833 1624.5,137.5C 1622.83,130.5 1625.5,127.833 1632.5,129.5C 1630.83,122.5 1633.5,119.833 1640.5,121.5C 1639.18,114.83 1641.84,112.164 1648.5,113.5C 1647.18,106.83 1649.84,104.164 1656.5,105.5C 1655.3,99.632 1657.63,96.7987 1663.5,97C 1664.11,94.8526 1664.78,92.686 1665.5,90.5C 1667.75,89.6258 1670.08,89.2924 1672.5,89.5C 1672.5,87.1667 1672.5,84.8333 1672.5,82.5C 1674.41,82.7845 1676.08,82.4511 1677.5,81.5 Z"/></g>
</svg>
