<?xml version="1.0" encoding="UTF-8"?>
<!DOCTYPE svg PUBLIC "-//W3C//DTD SVG 1.1//EN" "http://www.w3.org/Graphics/SVG/1.1/DTD/svg11.dtd">
<svg xmlns="http://www.w3.org/2000/svg" version="1.1" width="3464px" height="2309px" style="shape-rendering:geometricPrecision; text-rendering:geometricPrecision; image-rendering:optimizeQuality; fill-rule:evenodd; clip-rule:evenodd" xmlns:xlink="http://www.w3.org/1999/xlink">
<g><path style="opacity:0.937" fill="#fefffe" d="M 1781.5,80.5 C 1784.83,80.8333 1788.17,81.1667 1791.5,81.5C 1791.5,83.8333 1791.5,86.1667 1791.5,88.5C 1797.41,87.1948 1800.24,89.5281 1800,95.5C 1802.12,96.2272 1804.29,96.8938 1806.5,97.5C 1807.47,99.7427 1807.81,102.076 1807.5,104.5C 1814.16,103.164 1816.82,105.83 1815.5,112.5C 1822.16,111.164 1824.82,113.83 1823.5,120.5C 1830.5,118.833 1833.17,121.5 1831.5,128.5C 1838.5,126.833 1841.17,129.5 1839.5,136.5C 1846.5,134.833 1849.17,137.5 1847.5,144.5C 1854.5,142.833 1857.17,145.5 1855.5,152.5C 1862.5,150.833 1865.17,153.5 1863.5,160.5C 1870.5,158.833 1873.17,161.5 1871.5,168.5C 1878.5,166.833 1881.17,169.5 1879.5,176.5C 1886.5,174.833 1889.17,177.5 1887.5,184.5C 1894.5,182.833 1897.17,185.5 1895.5,192.5C 1902.5,190.833 1905.17,193.5 1903.5,200.5C 1910.5,198.833 1913.17,201.5 1911.5,208.5C 1918.5,206.833 1921.17,209.5 1919.5,216.5C 1926.5,214.833 1929.17,217.5 1927.5,224.5C 1934.5,222.833 1937.17,225.5 1935.5,232.5C 1942.5,230.833 1945.17,233.5 1943.5,240.5C 1950.5,238.833 1953.17,241.5 1951.5,248.5C 1958.5,246.833 1961.17,249.5 1959.5,256.5C 1966.5,254.833 1969.17,257.5 1967.5,264.5C 1974.5,262.833 1977.17,265.5 1975.5,272.5C 1982.5,270.833 1985.17,273.5 1983.5,280.5C 1990.5,278.833 1993.17,281.5 1991.5,288.5C 1998.5,286.833 2001.17,289.5 1999.5,296.5C 2006.5,294.833 2009.17,297.5 2007.5,304.5C 2014.5,302.833 2017.17,305.5 2015.5,312.5C 2022.5,310.833 2025.17,313.5 2023.5,320.5C 2030.5,318.833 2033.17,321.5 2031.5,328.5C 2038.17,327.175 2040.84,329.842 2039.5,336.5C 2045.37,335.297 2048.2,337.631 2048,343.5C 2050.15,344.113 2052.31,344.779 2054.5,345.5C 2055.04,347.535 2055.71,349.535 2056.5,351.5C 2062.03,351.432 2064.36,354.098 2063.5,359.5C 2065.81,359.993 2068.14,360.326 2070.5,360.5C 2070.99,362.806 2071.33,365.139 2071.5,367.5C 2073.86,367.674 2076.19,368.007 2078.5,368.5C 2078.67,370.861 2079.01,373.194 2079.5,375.5C 2084.9,374.637 2087.57,376.97 2087.5,382.5C 2089.46,383.292 2091.46,383.959 2093.5,384.5C 2094.31,386.423 2094.81,388.423 2095,390.5C 2097.12,391.227 2099.29,391.894 2101.5,392.5C 2102.47,394.743 2102.81,397.076 2102.5,399.5C 2109.16,398.164 2111.82,400.83 2110.5,407.5C 2117.16,406.164 2119.82,408.83 2118.5,415.5C 2125.5,413.833 2128.17,416.5 2126.5,423.5C 2133.5,421.833 2136.17,424.5 2134.5,431.5C 2141.5,429.833 2144.17,432.5 2142.5,439.5C 2149.5,437.833 2152.17,440.5 2150.5,447.5C 2157.5,445.833 2160.17,448.5 2158.5,455.5C 2165.5,453.833 2168.17,456.5 2166.5,463.5C 2173.5,461.833 2176.17,464.5 2174.5,471.5C 2181.5,469.833 2184.17,472.5 2182.5,479.5C 2189.5,477.833 2192.17,480.5 2190.5,487.5C 2197.5,485.833 2200.17,488.5 2198.5,495.5C 2205.5,493.833 2208.17,496.5 2206.5,503.5C 2213.5,501.833 2216.17,504.5 2214.5,511.5C 2221.5,509.833 2224.17,512.5 2222.5,519.5C 2229.5,517.833 2232.17,520.5 2230.5,527.5C 2237.5,525.833 2240.17,528.5 2238.5,535.5C 2245.5,533.833 2248.17,536.5 2246.5,543.5C 2253.5,541.833 2256.17,544.5 2254.5,551.5C 2261.5,549.833 2264.17,552.5 2262.5,559.5C 2269.5,557.833 2272.17,560.5 2270.5,567.5C 2277.5,565.833 2280.17,568.5 2278.5,575.5C 2285.5,573.833 2288.17,576.5 2286.5,583.5C 2293.5,581.833 2296.17,584.5 2294.5,591.5C 2301.5,589.833 2304.17,592.5 2302.5,599.5C 2309.5,597.833 2312.17,600.5 2310.5,607.5C 2317.5,605.833 2320.17,608.5 2318.5,615.5C 2325.17,614.175 2327.84,616.842 2326.5,623.5C 2333.17,622.175 2335.84,624.842 2334.5,631.5C 2340.37,630.297 2343.2,632.631 2343,638.5C 2345.15,639.113 2347.31,639.779 2349.5,640.5C 2350.04,642.535 2350.71,644.535 2351.5,646.5C 2357.03,646.432 2359.36,649.098 2358.5,654.5C 2360.81,654.993 2363.14,655.326 2365.5,655.5C 2365.99,657.806 2366.33,660.139 2366.5,662.5C 2368.86,662.674 2371.19,663.007 2373.5,663.5C 2373.67,665.861 2374.01,668.194 2374.5,670.5C 2376.86,670.674 2379.19,671.007 2381.5,671.5C 2380.64,676.902 2382.97,679.568 2388.5,679.5C 2389.31,681.423 2389.81,683.423 2390,685.5C 2392.12,686.227 2394.29,686.894 2396.5,687.5C 2397.22,689.686 2397.89,691.853 2398.5,694C 2404.37,693.799 2406.7,696.632 2405.5,702.5C 2412.16,701.164 2414.82,703.83 2413.5,710.5C 2420.5,708.833 2423.17,711.5 2421.5,718.5C 2428.5,716.833 2431.17,719.5 2429.5,726.5C 2436.5,724.833 2439.17,727.5 2437.5,734.5C 2444.5,732.833 2447.17,735.5 2445.5,742.5C 2452.5,740.833 2455.17,743.5 2453.5,750.5C 2460.5,748.833 2463.17,751.5 2461.5,758.5C 2468.5,756.833 2471.17,759.5 2469.5,766.5C 2476.5,764.833 2479.17,767.5 2477.5,774.5C 2484.5,772.833 2487.17,775.5 2485.5,782.5C 2492.5,780.833 2495.17,783.5 2493.5,790.5C 2500.5,788.833 2503.17,791.5 2501.5,798.5C 2508.5,796.833 2511.17,799.5 2509.5,806.5C 2516.5,804.833 2519.17,807.5 2517.5,814.5C 2524.5,812.833 2527.17,815.5 2525.5,822.5C 2532.5,820.833 2535.17,823.5 2533.5,830.5C 2540.5,828.833 2543.17,831.5 2541.5,838.5C 2548.5,836.833 2551.17,839.5 2549.5,846.5C 2556.5,844.833 2559.17,847.5 2557.5,854.5C 2564.5,852.833 2567.17,855.5 2565.5,862.5C 2572.5,860.833 2575.17,863.5 2573.5,870.5C 2580.5,868.833 2583.17,871.5 2581.5,878.5C 2588.5,876.833 2591.17,879.5 2589.5,886.5C 2596.5,884.833 2599.17,887.5 2597.5,894.5C 2604.5,892.833 2607.17,895.5 2605.5,902.5C 2612.5,900.833 2615.17,903.5 2613.5,910.5C 2620.17,909.175 2622.84,911.842 2621.5,918.5C 2628.17,917.175 2630.84,919.842 2629.5,926.5C 2635.37,925.297 2638.2,927.631 2638,933.5C 2640.15,934.113 2642.31,934.779 2644.5,935.5C 2645.04,937.535 2645.71,939.535 2646.5,941.5C 2652.03,941.432 2654.36,944.098 2653.5,949.5C 2655.81,949.993 2658.14,950.326 2660.5,950.5C 2660.99,952.806 2661.33,955.139 2661.5,957.5C 2663.86,957.674 2666.19,958.007 2668.5,958.5C 2668.67,960.861 2669.01,963.194 2669.5,965.5C 2671.86,965.674 2674.19,966.007 2676.5,966.5C 2675.64,971.902 2677.97,974.568 2683.5,974.5C 2684.31,976.423 2684.81,978.423 2685,980.5C 2687.12,981.227 2689.29,981.894 2691.5,982.5C 2692.22,984.686 2692.89,986.853 2693.5,989C 2699.37,988.799 2701.7,991.632 2700.5,997.5C 2707.16,996.164 2709.82,998.83 2708.5,1005.5C 2715.5,1003.83 2718.17,1006.5 2716.5,1013.5C 2723.5,1011.83 2726.17,1014.5 2724.5,1021.5C 2731.5,1019.83 2734.17,1022.5 2732.5,1029.5C 2739.5,1027.83 2742.17,1030.5 2740.5,1037.5C 2747.5,1035.83 2750.17,1038.5 2748.5,1045.5C 2755.5,1043.83 2758.17,1046.5 2756.5,1053.5C 2763.5,1051.83 2766.17,1054.5 2764.5,1061.5C 2771.5,1059.83 2774.17,1062.5 2772.5,1069.5C 2779.5,1067.83 2782.17,1070.5 2780.5,1077.5C 2787.5,1075.83 2790.17,1078.5 2788.5,1085.5C 2795.5,1083.83 2798.17,1086.5 2796.5,1093.5C 2803.5,1091.83 2806.17,1094.5 2804.5,1101.5C 2810.83,1100.49 2813.49,1103.16 2812.5,1109.5C 2813.47,1115.7 2810.81,1118.36 2804.5,1117.5C 2804.5,1120.17 2804.5,1122.83 2804.5,1125.5C 2801.87,1126.09 2799.21,1126.42 2796.5,1126.5C 2796.5,1128.83 2796.5,1131.17 2796.5,1133.5C 2793.87,1134.09 2791.21,1134.42 2788.5,1134.5C 2788.5,1136.83 2788.5,1139.17 2788.5,1141.5C 2785.87,1142.09 2783.21,1142.42 2780.5,1142.5C 2780.5,1144.83 2780.5,1147.17 2780.5,1149.5C 2777.83,1149.83 2775.17,1150.17 2772.5,1150.5C 2773.82,1157.17 2771.16,1159.84 2764.5,1158.5C 2765.82,1165.17 2763.16,1167.84 2756.5,1166.5C 2756.5,1168.83 2756.5,1171.17 2756.5,1173.5C 2753.87,1174.09 2751.21,1174.42 2748.5,1174.5C 2748.5,1176.83 2748.5,1179.17 2748.5,1181.5C 2745.83,1181.83 2743.17,1182.17 2740.5,1182.5C 2740.5,1184.83 2740.5,1187.17 2740.5,1189.5C 2737.83,1189.5 2735.17,1189.5 2732.5,1189.5C 2732.5,1192.17 2732.5,1194.83 2732.5,1197.5C 2729.83,1197.5 2727.17,1197.5 2724.5,1197.5C 2724.5,1200.17 2724.5,1202.83 2724.5,1205.5C 2721.83,1205.5 2719.17,1205.5 2716.5,1205.5C 2716.5,1208.17 2716.5,1210.83 2716.5,1213.5C 2713.83,1213.5 2711.17,1213.5 2708.5,1213.5C 2708.5,1216.17 2708.5,1218.83 2708.5,1221.5C 2706.17,1221.5 2703.83,1221.5 2701.5,1221.5C 2701.17,1224.17 2700.83,1226.83 2700.5,1229.5C 2698.17,1229.5 2695.83,1229.5 2693.5,1229.5C 2693.42,1232.21 2693.09,1234.87 2692.5,1237.5C 2690.17,1237.5 2687.83,1237.5 2685.5,1237.5C 2685.42,1240.21 2685.09,1242.87 2684.5,1245.5C 2682.17,1245.5 2679.83,1245.5 2677.5,1245.5C 2678.84,1252.16 2676.17,1254.82 2669.5,1253.5C 2670.84,1260.16 2668.17,1262.82 2661.5,1261.5C 2663.17,1268.5 2660.5,1271.17 2653.5,1269.5C 2655.17,1276.5 2652.5,1279.17 2645.5,1277.5C 2647.17,1284.5 2644.5,1287.17 2637.5,1285.5C 2639.17,1292.5 2636.5,1295.17 2629.5,1293.5C 2631.17,1300.5 2628.5,1303.17 2621.5,1301.5C 2623.17,1308.5 2620.5,1311.17 2613.5,1309.5C 2615.17,1316.5 2612.5,1319.17 2605.5,1317.5C 2607.17,1324.5 2604.5,1327.17 2597.5,1325.5C 2599.17,1332.5 2596.5,1335.17 2589.5,1333.5C 2591.17,1340.5 2588.5,1343.17 2581.5,1341.5C 2583.17,1348.5 2580.5,1351.17 2573.5,1349.5C 2575.17,1356.5 2572.5,1359.17 2565.5,1357.5C 2567.17,1364.5 2564.5,1367.17 2557.5,1365.5C 2559.17,1372.5 2556.5,1375.17 2549.5,1373.5C 2551.17,1380.5 2548.5,1383.17 2541.5,1381.5C 2543.17,1388.5 2540.5,1391.17 2533.5,1389.5C 2535.17,1396.5 2532.5,1399.17 2525.5,1397.5C 2527.17,1404.5 2524.5,1407.17 2517.5,1405.5C 2519.17,1412.5 2516.5,1415.17 2509.5,1413.5C 2511.17,1420.5 2508.5,1423.17 2501.5,1421.5C 2503.17,1428.5 2500.5,1431.17 2493.5,1429.5C 2495.17,1436.5 2492.5,1439.17 2485.5,1437.5C 2487.17,1444.5 2484.5,1447.17 2477.5,1445.5C 2478.82,1452.17 2476.16,1454.84 2469.5,1453.5C 2470.82,1460.17 2468.16,1462.84 2461.5,1461.5C 2461.5,1463.83 2461.5,1466.17 2461.5,1468.5C 2458.87,1469.09 2456.21,1469.42 2453.5,1469.5C 2453.5,1471.83 2453.5,1474.17 2453.5,1476.5C 2450.83,1476.83 2448.17,1477.17 2445.5,1477.5C 2445.5,1479.83 2445.5,1482.17 2445.5,1484.5C 2442.83,1484.83 2440.17,1485.17 2437.5,1485.5C 2437.5,1487.83 2437.5,1490.17 2437.5,1492.5C 2434.83,1492.5 2432.17,1492.5 2429.5,1492.5C 2429.5,1495.17 2429.5,1497.83 2429.5,1500.5C 2426.83,1500.5 2424.17,1500.5 2421.5,1500.5C 2421.5,1503.17 2421.5,1505.83 2421.5,1508.5C 2418.83,1508.5 2416.17,1508.5 2413.5,1508.5C 2413.5,1511.17 2413.5,1513.83 2413.5,1516.5C 2411.17,1516.5 2408.83,1516.5 2406.5,1516.5C 2406.17,1519.17 2405.83,1521.83 2405.5,1524.5C 2403.17,1524.5 2400.83,1524.5 2398.5,1524.5C 2398.42,1527.21 2398.09,1529.87 2397.5,1532.5C 2395.17,1532.5 2392.83,1532.5 2390.5,1532.5C 2390.42,1535.21 2390.09,1537.87 2389.5,1540.5C 2387.17,1540.5 2384.83,1540.5 2382.5,1540.5C 2383.84,1547.16 2381.17,1549.82 2374.5,1548.5C 2375.84,1555.16 2373.17,1557.82 2366.5,1556.5C 2368.17,1563.5 2365.5,1566.17 2358.5,1564.5C 2360.17,1571.5 2357.5,1574.17 2350.5,1572.5C 2352.17,1579.5 2349.5,1582.17 2342.5,1580.5C 2344.17,1587.5 2341.5,1590.17 2334.5,1588.5C 2336.17,1595.5 2333.5,1598.17 2326.5,1596.5C 2328.17,1603.5 2325.5,1606.17 2318.5,1604.5C 2320.17,1611.5 2317.5,1614.17 2310.5,1612.5C 2312.17,1619.5 2309.5,1622.17 2302.5,1620.5C 2304.17,1627.5 2301.5,1630.17 2294.5,1628.5C 2296.17,1635.5 2293.5,1638.17 2286.5,1636.5C 2288.17,1643.5 2285.5,1646.17 2278.5,1644.5C 2280.17,1651.5 2277.5,1654.17 2270.5,1652.5C 2272.17,1659.5 2269.5,1662.17 2262.5,1660.5C 2264.17,1667.5 2261.5,1670.17 2254.5,1668.5C 2256.17,1675.5 2253.5,1678.17 2246.5,1676.5C 2248.17,1683.5 2245.5,1686.17 2238.5,1684.5C 2240.17,1691.5 2237.5,1694.17 2230.5,1692.5C 2232.17,1699.5 2229.5,1702.17 2222.5,1700.5C 2224.17,1707.5 2221.5,1710.17 2214.5,1708.5C 2216.17,1715.5 2213.5,1718.17 2206.5,1716.5C 2208.17,1723.5 2205.5,1726.17 2198.5,1724.5C 2200.17,1731.5 2197.5,1734.17 2190.5,1732.5C 2192.17,1739.5 2189.5,1742.17 2182.5,1740.5C 2183.82,1747.17 2181.16,1749.84 2174.5,1748.5C 2175.82,1755.17 2173.16,1757.84 2166.5,1756.5C 2166.5,1758.83 2166.5,1761.17 2166.5,1763.5C 2163.87,1764.09 2161.21,1764.42 2158.5,1764.5C 2158.5,1766.83 2158.5,1769.17 2158.5,1771.5C 2155.83,1771.83 2153.17,1772.17 2150.5,1772.5C 2150.5,1774.83 2150.5,1777.17 2150.5,1779.5C 2147.83,1779.83 2145.17,1780.17 2142.5,1780.5C 2142.5,1782.83 2142.5,1785.17 2142.5,1787.5C 2139.83,1787.5 2137.17,1787.5 2134.5,1787.5C 2134.5,1790.17 2134.5,1792.83 2134.5,1795.5C 2131.83,1795.5 2129.17,1795.5 2126.5,1795.5C 2126.5,1798.17 2126.5,1800.83 2126.5,1803.5C 2123.83,1803.5 2121.17,1803.5 2118.5,1803.5C 2118.5,1806.17 2118.5,1808.83 2118.5,1811.5C 2116.17,1811.5 2113.83,1811.5 2111.5,1811.5C 2111.17,1814.17 2110.83,1816.83 2110.5,1819.5C 2108.17,1819.5 2105.83,1819.5 2103.5,1819.5C 2103.17,1822.17 2102.83,1824.83 2102.5,1827.5C 2100.17,1827.5 2097.83,1827.5 2095.5,1827.5C 2095.42,1830.21 2095.09,1832.87 2094.5,1835.5C 2092.17,1835.5 2089.83,1835.5 2087.5,1835.5C 2088.84,1842.16 2086.17,1844.82 2079.5,1843.5C 2080.84,1850.16 2078.17,1852.82 2071.5,1851.5C 2073.17,1858.5 2070.5,1861.17 2063.5,1859.5C 2065.17,1866.5 2062.5,1869.17 2055.5,1867.5C 2057.17,1874.5 2054.5,1877.17 2047.5,1875.5C 2049.17,1882.5 2046.5,1885.17 2039.5,1883.5C 2041.17,1890.5 2038.5,1893.17 2031.5,1891.5C 2033.17,1898.5 2030.5,1901.17 2023.5,1899.5C 2025.17,1906.5 2022.5,1909.17 2015.5,1907.5C 2017.17,1914.5 2014.5,1917.17 2007.5,1915.5C 2009.17,1922.5 2006.5,1925.17 1999.5,1923.5C 2001.17,1930.5 1998.5,1933.17 1991.5,1931.5C 1993.17,1938.5 1990.5,1941.17 1983.5,1939.5C 1985.17,1946.5 1982.5,1949.17 1975.5,1947.5C 1977.17,1954.5 1974.5,1957.17 1967.5,1955.5C 1969.17,1962.5 1966.5,1965.17 1959.5,1963.5C 1961.17,1970.5 1958.5,1973.17 1951.5,1971.5C 1953.17,1978.5 1950.5,1981.17 1943.5,1979.5C 1945.17,1986.5 1942.5,1989.17 1935.5,1987.5C 1937.17,1994.5 1934.5,1997.17 1927.5,1995.5C 1929.17,2002.5 1926.5,2005.17 1919.5,2003.5C 1921.17,2010.5 1918.5,2013.17 1911.5,2011.5C 1913.17,2018.5 1910.5,2021.17 1903.5,2019.5C 1905.17,2026.5 1902.5,2029.17 1895.5,2027.5C 1897.17,2034.5 1894.5,2037.17 1887.5,2035.5C 1888.82,2042.17 1886.16,2044.84 1879.5,2043.5C 1880.82,2050.17 1878.16,2052.84 1871.5,2051.5C 1871.5,2053.83 1871.5,2056.17 1871.5,2058.5C 1868.87,2059.09 1866.21,2059.42 1863.5,2059.5C 1863.5,2061.83 1863.5,2064.17 1863.5,2066.5C 1860.83,2066.83 1858.17,2067.17 1855.5,2067.5C 1855.5,2069.83 1855.5,2072.17 1855.5,2074.5C 1852.83,2074.83 1850.17,2075.17 1847.5,2075.5C 1847.5,2077.83 1847.5,2080.17 1847.5,2082.5C 1844.83,2082.5 1842.17,2082.5 1839.5,2082.5C 1839.5,2085.17 1839.5,2087.83 1839.5,2090.5C 1836.83,2090.5 1834.17,2090.5 1831.5,2090.5C 1831.5,2093.17 1831.5,2095.83 1831.5,2098.5C 1828.83,2098.5 1826.17,2098.5 1823.5,2098.5C 1823.5,2101.17 1823.5,2103.83 1823.5,2106.5C 1821.17,2106.5 1818.83,2106.5 1816.5,2106.5C 1816.17,2109.17 1815.83,2111.83 1815.5,2114.5C 1813.17,2114.5 1810.83,2114.5 1808.5,2114.5C 1808.17,2117.17 1807.83,2119.83 1807.5,2122.5C 1805.17,2122.5 1802.83,2122.5 1800.5,2122.5C 1800.42,2125.21 1800.09,2127.87 1799.5,2130.5C 1797.17,2130.5 1794.83,2130.5 1792.5,2130.5C 1792.71,2132.92 1792.37,2135.25 1791.5,2137.5C 1784.47,2138.8 1777.47,2138.8 1770.5,2137.5C 1768.83,2135.49 1768.16,2133.16 1768.5,2130.5C 1762.79,2131.62 1759.96,2129.29 1760,2123.5C 1754.67,2123.5 1752,2120.83 1752,2115.5C 1746.05,2115.38 1743.55,2112.38 1744.5,2106.5C 1738.17,2107.5 1735.5,2104.83 1736.5,2098.5C 1729.72,2100.06 1726.72,2097.39 1727.5,2090.5C 1721.31,2091.48 1718.64,2088.81 1719.5,2082.5C 1713.35,2083.49 1710.69,2080.82 1711.5,2074.5C 1705.35,2075.49 1702.69,2072.82 1703.5,2066.5C 1697.35,2067.49 1694.69,2064.82 1695.5,2058.5C 1689.35,2059.49 1686.69,2056.82 1687.5,2050.5C 1681.35,2051.49 1678.69,2048.82 1679.5,2042.5C 1673.35,2043.49 1670.69,2040.82 1671.5,2034.5C 1669.47,2034.66 1667.47,2034.5 1665.5,2034C 1664.45,2031.62 1663.78,2029.12 1663.5,2026.5C 1661.47,2026.66 1659.47,2026.5 1657.5,2026C 1656.45,2023.62 1655.78,2021.12 1655.5,2018.5C 1653.47,2018.66 1651.47,2018.5 1649.5,2018C 1648.77,2015.88 1648.11,2013.71 1647.5,2011.5C 1645.58,2010.69 1643.58,2010.19 1641.5,2010C 1640.77,2007.88 1640.11,2005.71 1639.5,2003.5C 1637.58,2002.69 1635.58,2002.19 1633.5,2002C 1632.77,1999.88 1632.11,1997.71 1631.5,1995.5C 1629.58,1994.69 1627.58,1994.19 1625.5,1994C 1624.89,1991.85 1624.22,1989.69 1623.5,1987.5C 1621.56,1986.81 1619.56,1986.31 1617.5,1986C 1616.89,1983.85 1616.22,1981.69 1615.5,1979.5C 1613.29,1978.89 1611.12,1978.23 1609,1977.5C 1608.5,1975.53 1608.34,1973.53 1608.5,1971.5C 1606.15,1971.16 1603.81,1970.66 1601.5,1970C 1600.58,1967.96 1600.24,1965.79 1600.5,1963.5C 1598.15,1963.16 1595.81,1962.66 1593.5,1962C 1592.58,1959.96 1592.24,1957.79 1592.5,1955.5C 1586.18,1956.31 1583.51,1953.65 1584.5,1947.5C 1582.15,1947.16 1579.81,1946.66 1577.5,1946C 1576.58,1943.96 1576.24,1941.79 1576.5,1939.5C 1570.18,1940.31 1567.51,1937.65 1568.5,1931.5C 1562.18,1932.31 1559.51,1929.65 1560.5,1923.5C 1554.18,1924.31 1551.51,1921.65 1552.5,1915.5C 1546.18,1916.31 1543.51,1913.65 1544.5,1907.5C 1541.73,1907.78 1539.23,1907.11 1537,1905.5C 1536.33,1896.17 1536.33,1886.83 1537,1877.5C 1539.12,1876.77 1541.29,1876.11 1543.5,1875.5C 1544.22,1873.31 1544.89,1871.15 1545.5,1869C 1547.5,1868.67 1549.5,1868.33 1551.5,1868C 1552.26,1865.93 1552.76,1863.76 1553,1861.5C 1555.07,1860.74 1557.24,1860.24 1559.5,1860C 1560.26,1857.93 1560.76,1855.76 1561,1853.5C 1563.07,1852.74 1565.24,1852.24 1567.5,1852C 1568.26,1849.93 1568.76,1847.76 1569,1845.5C 1571.07,1844.74 1573.24,1844.24 1575.5,1844C 1576.26,1841.93 1576.76,1839.76 1577,1837.5C 1579.07,1836.74 1581.24,1836.24 1583.5,1836C 1584.26,1833.93 1584.76,1831.76 1585,1829.5C 1587.07,1828.74 1589.24,1828.24 1591.5,1828C 1592.26,1825.93 1592.76,1823.76 1593,1821.5C 1595.07,1820.74 1597.24,1820.24 1599.5,1820C 1600.26,1817.93 1600.76,1815.76 1601,1813.5C 1603.07,1812.74 1605.24,1812.24 1607.5,1812C 1608.26,1809.93 1608.76,1807.76 1609,1805.5C 1611.15,1804.89 1613.31,1804.22 1615.5,1803.5C 1616.11,1801.29 1616.77,1799.12 1617.5,1797C 1619.47,1796.5 1621.47,1796.34 1623.5,1796.5C 1623.84,1794.15 1624.34,1791.81 1625,1789.5C 1627.04,1788.58 1629.21,1788.24 1631.5,1788.5C 1631.84,1786.15 1632.34,1783.81 1633,1781.5C 1635.04,1780.58 1637.21,1780.24 1639.5,1780.5C 1638.69,1774.18 1641.35,1771.51 1647.5,1772.5C 1646.69,1766.18 1649.35,1763.51 1655.5,1764.5C 1654.69,1758.18 1657.35,1755.51 1663.5,1756.5C 1662.69,1750.18 1665.35,1747.51 1671.5,1748.5C 1670.64,1742.19 1673.31,1739.52 1679.5,1740.5C 1678.64,1734.19 1681.31,1731.52 1687.5,1732.5C 1686.64,1726.19 1689.31,1723.52 1695.5,1724.5C 1694.64,1718.19 1697.31,1715.52 1703.5,1716.5C 1702.64,1710.19 1705.31,1707.52 1711.5,1708.5C 1710.64,1702.19 1713.31,1699.52 1719.5,1700.5C 1718.83,1694.5 1721.5,1691.83 1727.5,1692.5C 1726.87,1686.62 1729.54,1683.79 1735.5,1684C 1736,1678.83 1738.83,1676 1744,1675.5C 1743.86,1670.47 1746.36,1667.97 1751.5,1668C 1751.46,1662.71 1754.12,1660.04 1759.5,1660C 1759.46,1654.71 1762.12,1652.04 1767.5,1652C 1768.25,1650.27 1768.75,1648.43 1769,1646.5C 1771.05,1645.28 1773.22,1644.28 1775.5,1643.5C 1776.15,1641.88 1776.65,1640.22 1777,1638.5C 1779.05,1637.28 1781.22,1636.28 1783.5,1635.5C 1784.15,1633.88 1784.65,1632.22 1785,1630.5C 1787.2,1629.6 1789.37,1628.6 1791.5,1627.5C 1792.15,1625.88 1792.65,1624.22 1793,1622.5C 1795.2,1621.6 1797.37,1620.6 1799.5,1619.5C 1800.15,1617.88 1800.65,1616.22 1801,1614.5C 1803.2,1613.6 1805.37,1612.6 1807.5,1611.5C 1808.15,1609.88 1808.65,1608.22 1809,1606.5C 1813.91,1606.14 1816.58,1603.48 1817,1598.5C 1822,1598.17 1824.67,1595.5 1825,1590.5C 1826.78,1589.76 1828.62,1589.09 1830.5,1588.5C 1831.6,1586.37 1832.6,1584.2 1833.5,1582C 1835.43,1581.75 1837.27,1581.25 1839,1580.5C 1839.64,1578.24 1840.48,1576.07 1841.5,1574C 1843.47,1573.5 1845.47,1573.34 1847.5,1573.5C 1846.69,1567.18 1849.35,1564.51 1855.5,1565.5C 1854.69,1559.18 1857.35,1556.51 1863.5,1557.5C 1862.81,1551.97 1865.14,1549.14 1870.5,1549C 1871.52,1546.93 1872.36,1544.76 1873,1542.5C 1874.73,1541.75 1876.57,1541.25 1878.5,1541C 1879.52,1538.93 1880.36,1536.76 1881,1534.5C 1882.73,1533.75 1884.57,1533.25 1886.5,1533C 1887.52,1530.93 1888.36,1528.76 1889,1526.5C 1890.73,1525.75 1892.57,1525.25 1894.5,1525C 1895.52,1522.93 1896.36,1520.76 1897,1518.5C 1898.73,1517.75 1900.57,1517.25 1902.5,1517C 1903.52,1514.93 1904.36,1512.76 1905,1510.5C 1906.73,1509.75 1908.57,1509.25 1910.5,1509C 1911.25,1506.83 1912.09,1504.66 1913,1502.5C 1914.73,1501.75 1916.57,1501.25 1918.5,1501C 1919.25,1498.83 1920.09,1496.66 1921,1494.5C 1922.73,1493.75 1924.57,1493.25 1926.5,1493C 1927.2,1490.55 1928.2,1488.21 1929.5,1486C 1931.43,1485.75 1933.27,1485.25 1935,1484.5C 1935.04,1479.12 1937.71,1476.46 1943,1476.5C 1943,1470.66 1945.83,1468.33 1951.5,1469.5C 1950.69,1463.18 1953.35,1460.51 1959.5,1461.5C 1958.69,1455.18 1961.35,1452.51 1967.5,1453.5C 1966.64,1447.19 1969.31,1444.52 1975.5,1445.5C 1974.64,1439.19 1977.31,1436.52 1983.5,1437.5C 1982.64,1431.19 1985.31,1428.52 1991.5,1429.5C 1990.64,1423.19 1993.31,1420.52 1999.5,1421.5C 1998.64,1415.19 2001.31,1412.52 2007.5,1413.5C 2006.83,1407.5 2009.5,1404.83 2015.5,1405.5C 2014.83,1399.5 2017.5,1396.83 2023.5,1397.5C 2022.83,1391.5 2025.5,1388.83 2031.5,1389.5C 2030.52,1383.31 2033.19,1380.64 2039.5,1381.5C 2038.52,1375.31 2041.19,1372.64 2047.5,1373.5C 2046.52,1367.31 2049.19,1364.64 2055.5,1365.5C 2054.52,1359.31 2057.19,1356.64 2063.5,1357.5C 2062.52,1351.31 2065.19,1348.64 2071.5,1349.5C 2070.52,1343.31 2073.19,1340.64 2079.5,1341.5C 2078.51,1335.35 2081.18,1332.69 2087.5,1333.5C 2086.51,1327.35 2089.18,1324.69 2095.5,1325.5C 2094.51,1319.35 2097.18,1316.69 2103.5,1317.5C 2102.51,1311.35 2105.18,1308.69 2111.5,1309.5C 2111.34,1307.47 2111.5,1305.47 2112,1303.5C 2114.38,1302.45 2116.88,1301.78 2119.5,1301.5C 2118.52,1295.31 2121.19,1292.64 2127.5,1293.5C 2126.52,1287.31 2129.19,1284.64 2135.5,1285.5C 2134.51,1279.35 2137.18,1276.69 2143.5,1277.5C 2142.51,1271.35 2145.18,1268.69 2151.5,1269.5C 2150.51,1263.35 2153.18,1260.69 2159.5,1261.5C 2158.51,1255.35 2161.18,1252.69 2167.5,1253.5C 2166.51,1247.35 2169.18,1244.69 2175.5,1245.5C 2174.51,1239.35 2177.18,1236.69 2183.5,1237.5C 2182.51,1231.35 2185.18,1228.69 2191.5,1229.5C 2190.51,1223.35 2193.18,1220.69 2199.5,1221.5C 2199.34,1219.47 2199.5,1217.47 2200,1215.5C 2202.07,1214.48 2204.24,1213.64 2206.5,1213C 2207.25,1211.27 2207.75,1209.43 2208,1207.5C 2210.2,1206.6 2212.37,1205.6 2214.5,1204.5C 2215.15,1202.88 2215.65,1201.22 2216,1199.5C 2218.2,1198.6 2220.37,1197.6 2222.5,1196.5C 2223.15,1194.88 2223.65,1193.22 2224,1191.5C 2226.2,1190.6 2228.37,1189.6 2230.5,1188.5C 2231.15,1186.88 2231.65,1185.22 2232,1183.5C 2236.91,1183.14 2239.58,1180.48 2240,1175.5C 2244.91,1175.14 2247.58,1172.48 2248,1167.5C 2249.78,1166.76 2251.62,1166.09 2253.5,1165.5C 2254.6,1163.37 2255.6,1161.2 2256.5,1159C 2258.22,1158.65 2259.88,1158.15 2261.5,1157.5C 2262.27,1155.14 2263.1,1152.8 2264,1150.5C 2266.04,1149.58 2268.21,1149.24 2270.5,1149.5C 2269.64,1143.19 2272.31,1140.52 2278.5,1141.5C 2277.64,1135.19 2280.31,1132.52 2286.5,1133.5C 2285.64,1127.19 2288.31,1124.52 2294.5,1125.5C 2293.64,1119.19 2296.31,1116.52 2302.5,1117.5C 2301.96,1114.31 2302.96,1111.81 2305.5,1110C 2304.58,1109.63 2303.75,1109.13 2303,1108.5C 2302.75,1103.82 2300.25,1101.32 2295.5,1101C 2294.76,1099.22 2294.09,1097.38 2293.5,1095.5C 2291.37,1094.4 2289.2,1093.4 2287,1092.5C 2286.75,1090.57 2286.25,1088.73 2285.5,1087C 2283.24,1086.36 2281.07,1085.52 2279,1084.5C 2278.75,1082.57 2278.25,1080.73 2277.5,1079C 2272.12,1078.96 2269.46,1076.29 2269.5,1071C 2264.12,1070.96 2261.46,1068.29 2261.5,1063C 2255.66,1063 2253.33,1060.17 2254.5,1054.5C 2248.19,1055.36 2245.52,1052.69 2246.5,1046.5C 2240.19,1047.36 2237.52,1044.69 2238.5,1038.5C 2232.19,1039.36 2229.52,1036.69 2230.5,1030.5C 2224.19,1031.36 2221.52,1028.69 2222.5,1022.5C 2216.5,1023.17 2213.83,1020.5 2214.5,1014.5C 2208.31,1015.48 2205.64,1012.81 2206.5,1006.5C 2200.6,1006.91 2197.93,1004.24 2198.5,998.5C 2192.6,998.908 2189.93,996.241 2190.5,990.5C 2184.6,990.908 2181.93,988.241 2182.5,982.5C 2176.6,982.908 2173.93,980.241 2174.5,974.5C 2168.6,974.908 2165.93,972.241 2166.5,966.5C 2160.6,966.908 2157.93,964.241 2158.5,958.5C 2152.57,959.001 2149.9,956.334 2150.5,950.5C 2144.57,951.001 2141.9,948.334 2142.5,942.5C 2136.57,943.001 2133.9,940.334 2134.5,934.5C 2128.57,935.001 2125.9,932.334 2126.5,926.5C 2120.57,927.001 2117.9,924.334 2118.5,918.5C 2112.57,919.001 2109.9,916.334 2110.5,910.5C 2104.57,911.001 2101.9,908.334 2102.5,902.5C 2096.57,903.001 2093.9,900.334 2094.5,894.5C 2088.57,895.001 2085.9,892.334 2086.5,886.5C 2080.57,887.001 2077.9,884.334 2078.5,878.5C 2076.14,878.326 2073.81,877.993 2071.5,877.5C 2071.01,875.194 2070.67,872.861 2070.5,870.5C 2068.14,870.326 2065.81,869.993 2063.5,869.5C 2063.01,867.194 2062.67,864.861 2062.5,862.5C 2060.14,862.326 2057.81,861.993 2055.5,861.5C 2055.01,859.194 2054.67,856.861 2054.5,854.5C 2048.67,855.097 2046,852.43 2046.5,846.5C 2040.67,847.097 2038,844.43 2038.5,838.5C 2032.67,839.097 2030,836.43 2030.5,830.5C 2024.67,831.097 2022,828.43 2022.5,822.5C 2016.76,823.065 2014.09,820.398 2014.5,814.5C 2008.76,815.065 2006.09,812.398 2006.5,806.5C 2004.47,806.662 2002.47,806.495 2000.5,806C 1999.45,803.618 1998.78,801.118 1998.5,798.5C 1996.47,798.662 1994.47,798.495 1992.5,798C 1991.45,795.618 1990.78,793.118 1990.5,790.5C 1988.47,790.662 1986.47,790.495 1984.5,790C 1983.77,787.876 1983.11,785.709 1982.5,783.5C 1980.58,782.692 1978.58,782.192 1976.5,782C 1975.77,779.876 1975.11,777.709 1974.5,775.5C 1972.58,774.692 1970.58,774.192 1968.5,774C 1967.77,771.876 1967.11,769.709 1966.5,767.5C 1964.31,766.779 1962.15,766.113 1960,765.5C 1959.67,763.5 1959.33,761.5 1959,759.5C 1956.93,758.736 1954.76,758.236 1952.5,758C 1951.74,755.931 1951.24,753.764 1951,751.5C 1948.93,750.736 1946.76,750.236 1944.5,750C 1943.48,747.929 1942.64,745.762 1942,743.5C 1940.27,742.751 1938.43,742.251 1936.5,742C 1935.48,739.929 1934.64,737.762 1934,735.5C 1932.27,734.751 1930.43,734.251 1928.5,734C 1927.48,731.929 1926.64,729.762 1926,727.5C 1924,726.833 1922,726.167 1920,725.5C 1919.34,723.187 1918.84,720.854 1918.5,718.5C 1916.47,718.662 1914.47,718.495 1912.5,718C 1911.45,715.618 1910.78,713.118 1910.5,710.5C 1908.47,710.662 1906.47,710.495 1904.5,710C 1903.77,707.876 1903.11,705.709 1902.5,703.5C 1900.31,702.779 1898.15,702.113 1896,701.5C 1895.67,699.5 1895.33,697.5 1895,695.5C 1892.67,694.833 1890.33,694.167 1888,693.5C 1887.5,691.19 1887.34,688.857 1887.5,686.5C 1880.5,688.167 1877.83,685.5 1879.5,678.5C 1872.5,680.167 1869.83,677.5 1871.5,670.5C 1864.5,672.167 1861.83,669.5 1863.5,662.5C 1856.5,664.167 1853.83,661.5 1855.5,654.5C 1848.5,656.167 1845.83,653.5 1847.5,646.5C 1840.5,648.167 1837.83,645.5 1839.5,638.5C 1832.5,640.167 1829.83,637.5 1831.5,630.5C 1824.5,632.167 1821.83,629.5 1823.5,622.5C 1816.5,624.167 1813.83,621.5 1815.5,614.5C 1808.5,616.167 1805.83,613.5 1807.5,606.5C 1800.5,608.167 1797.83,605.5 1799.5,598.5C 1792.5,600.167 1789.83,597.5 1791.5,590.5C 1789.14,590.663 1786.81,590.497 1784.5,590C 1783.89,587.853 1783.22,585.686 1782.5,583.5C 1780.29,582.894 1778.12,582.227 1776,581.5C 1775.5,579.527 1775.34,577.527 1775.5,575.5C 1773.15,575.162 1770.81,574.662 1768.5,574C 1767.58,571.959 1767.24,569.792 1767.5,567.5C 1761.18,568.313 1758.51,565.646 1759.5,559.5C 1753.18,560.313 1750.51,557.646 1751.5,551.5C 1745.19,552.359 1742.52,549.692 1743.5,543.5C 1737.19,544.359 1734.52,541.692 1735.5,535.5C 1728.84,536.836 1726.18,534.17 1727.5,527.5C 1720.84,528.836 1718.18,526.17 1719.5,519.5C 1712.84,520.836 1710.18,518.17 1711.5,511.5C 1704.5,513.167 1701.83,510.5 1703.5,503.5C 1696.5,505.167 1693.83,502.5 1695.5,495.5C 1688.5,497.167 1685.83,494.5 1687.5,487.5C 1680.5,489.167 1677.83,486.5 1679.5,479.5C 1672.5,481.167 1669.83,478.5 1671.5,471.5C 1664.5,473.167 1661.83,470.5 1663.5,463.5C 1656.5,465.167 1653.83,462.5 1655.5,455.5C 1648.5,457.167 1645.83,454.5 1647.5,447.5C 1640.5,449.167 1637.83,446.5 1639.5,439.5C 1632.5,441.167 1629.83,438.5 1631.5,431.5C 1624.83,432.825 1622.16,430.158 1623.5,423.5C 1616.83,424.825 1614.16,422.158 1615.5,415.5C 1608.83,416.825 1606.16,414.158 1607.5,407.5C 1600.83,408.825 1598.16,406.158 1599.5,399.5C 1597.17,399.5 1594.83,399.5 1592.5,399.5C 1591.91,396.873 1591.58,394.206 1591.5,391.5C 1589.17,391.5 1586.83,391.5 1584.5,391.5C 1583.91,388.873 1583.58,386.206 1583.5,383.5C 1581.17,383.5 1578.83,383.5 1576.5,383.5C 1575.91,380.873 1575.58,378.206 1575.5,375.5C 1573.17,375.5 1570.83,375.5 1568.5,375.5C 1568.17,372.833 1567.83,370.167 1567.5,367.5C 1565.17,367.5 1562.83,367.5 1560.5,367.5C 1560.42,364.794 1560.09,362.127 1559.5,359.5C 1557.17,359.5 1554.83,359.5 1552.5,359.5C 1552.5,356.833 1552.5,354.167 1552.5,351.5C 1549.83,351.5 1547.17,351.5 1544.5,351.5C 1544.5,348.833 1544.5,346.167 1544.5,343.5C 1541.83,343.5 1539.17,343.5 1536.5,343.5C 1536.5,335.833 1536.5,328.167 1536.5,320.5C 1539.13,319.908 1541.79,319.575 1544.5,319.5C 1544.5,317.167 1544.5,314.833 1544.5,312.5C 1546.81,312.007 1549.14,311.674 1551.5,311.5C 1551.99,309.194 1552.33,306.861 1552.5,304.5C 1554.81,304.007 1557.14,303.674 1559.5,303.5C 1558.9,297.666 1561.57,294.999 1567.5,295.5C 1566.9,289.666 1569.57,286.999 1575.5,287.5C 1574.51,281.354 1577.18,278.687 1583.5,279.5C 1582.51,273.354 1585.18,270.687 1591.5,271.5C 1591.34,269.473 1591.5,267.473 1592,265.5C 1594.38,264.446 1596.88,263.779 1599.5,263.5C 1599.34,261.473 1599.5,259.473 1600,257.5C 1602.38,256.446 1604.88,255.779 1607.5,255.5C 1607.34,253.473 1607.5,251.473 1608,249.5C 1610.38,248.446 1612.88,247.779 1615.5,247.5C 1615.34,245.473 1615.5,243.473 1616,241.5C 1618.38,240.446 1620.88,239.779 1623.5,239.5C 1623.34,237.473 1623.5,235.473 1624,233.5C 1626.38,232.446 1628.88,231.779 1631.5,231.5C 1631.34,229.473 1631.5,227.473 1632,225.5C 1634.38,224.446 1636.88,223.779 1639.5,223.5C 1639.34,221.473 1639.5,219.473 1640,217.5C 1642.38,216.446 1644.88,215.779 1647.5,215.5C 1647.34,213.473 1647.5,211.473 1648,209.5C 1650.12,208.773 1652.29,208.106 1654.5,207.5C 1655.47,205.257 1655.81,202.924 1655.5,200.5C 1662.16,201.836 1664.82,199.17 1663.5,192.5C 1670.16,193.836 1672.82,191.17 1671.5,184.5C 1678.16,185.836 1680.82,183.17 1679.5,176.5C 1686.5,178.167 1689.17,175.5 1687.5,168.5C 1694.5,170.167 1697.17,167.5 1695.5,160.5C 1697.86,160.663 1700.19,160.497 1702.5,160C 1703.17,157.667 1703.83,155.333 1704.5,153C 1706.81,152.503 1709.14,152.337 1711.5,152.5C 1709.83,145.5 1712.5,142.833 1719.5,144.5C 1719.5,141.833 1719.5,139.167 1719.5,136.5C 1722.17,136.167 1724.83,135.833 1727.5,135.5C 1727.34,133.473 1727.5,131.473 1728,129.5C 1730.38,128.446 1732.88,127.779 1735.5,127.5C 1735.34,125.473 1735.5,123.473 1736,121.5C 1738.12,120.773 1740.29,120.106 1742.5,119.5C 1743.31,117.577 1743.81,115.577 1744,113.5C 1746.12,112.773 1748.29,112.106 1750.5,111.5C 1751.22,109.314 1751.89,107.147 1752.5,105C 1754.5,104.667 1756.5,104.333 1758.5,104C 1759.26,101.931 1759.76,99.764 1760,97.5C 1762.07,96.7362 1764.24,96.2362 1766.5,96C 1767.17,93.6667 1767.83,91.3333 1768.5,89C 1770.81,88.5034 1773.14,88.3367 1775.5,88.5C 1775.22,83.8615 1777.22,81.1948 1781.5,80.5 Z"/></g>
</svg>
